<mxfile host="app.diagrams.net" modified="2021-05-26T08:57:00.262Z" agent="5.0 (Macintosh; Intel Mac OS X 10_15_7) AppleWebKit/537.36 (KHTML, like Gecko) Chrome/90.0.4430.212 Safari/537.36" etag="tNGSQstAPogEg83Ou-Z-" version="14.7.1" type="github">
  <diagram id="C5RBs43oDa-KdzZeNtuy" name="Page-1">
    <mxGraphModel dx="1426" dy="794" grid="1" gridSize="10" guides="1" tooltips="1" connect="1" arrows="1" fold="1" page="1" pageScale="1" pageWidth="827" pageHeight="1169" math="0" shadow="0">
      <root>
        <mxCell id="WIyWlLk6GJQsqaUBKTNV-0" />
        <mxCell id="WIyWlLk6GJQsqaUBKTNV-1" parent="WIyWlLk6GJQsqaUBKTNV-0" />
        <mxCell id="xRl2DXlK5777QrmtT1Zl-33" style="edgeStyle=orthogonalEdgeStyle;rounded=0;orthogonalLoop=1;jettySize=auto;html=1;exitX=0.5;exitY=1;exitDx=0;exitDy=0;entryX=0.5;entryY=0;entryDx=0;entryDy=0;" edge="1" parent="WIyWlLk6GJQsqaUBKTNV-1" source="WIyWlLk6GJQsqaUBKTNV-3" target="xRl2DXlK5777QrmtT1Zl-31">
          <mxGeometry relative="1" as="geometry" />
        </mxCell>
        <mxCell id="WIyWlLk6GJQsqaUBKTNV-3" value="提出埋点需求" style="rounded=1;whiteSpace=wrap;html=1;fontSize=12;glass=0;strokeWidth=1;shadow=0;" parent="WIyWlLk6GJQsqaUBKTNV-1" vertex="1">
          <mxGeometry x="215" y="30" width="110" height="40" as="geometry" />
        </mxCell>
        <mxCell id="xRl2DXlK5777QrmtT1Zl-8" style="edgeStyle=orthogonalEdgeStyle;rounded=0;orthogonalLoop=1;jettySize=auto;html=1;exitX=0.5;exitY=1;exitDx=0;exitDy=0;entryX=0.5;entryY=0;entryDx=0;entryDy=0;" edge="1" parent="WIyWlLk6GJQsqaUBKTNV-1" source="xRl2DXlK5777QrmtT1Zl-2" target="xRl2DXlK5777QrmtT1Zl-6">
          <mxGeometry relative="1" as="geometry" />
        </mxCell>
        <mxCell id="xRl2DXlK5777QrmtT1Zl-2" value="提交开发" style="rounded=1;whiteSpace=wrap;html=1;" vertex="1" parent="WIyWlLk6GJQsqaUBKTNV-1">
          <mxGeometry x="210" y="370" width="120" height="40" as="geometry" />
        </mxCell>
        <mxCell id="xRl2DXlK5777QrmtT1Zl-10" style="edgeStyle=orthogonalEdgeStyle;rounded=0;orthogonalLoop=1;jettySize=auto;html=1;exitX=0.5;exitY=1;exitDx=0;exitDy=0;entryX=0.5;entryY=0;entryDx=0;entryDy=0;" edge="1" parent="WIyWlLk6GJQsqaUBKTNV-1" source="xRl2DXlK5777QrmtT1Zl-6" target="xRl2DXlK5777QrmtT1Zl-9">
          <mxGeometry relative="1" as="geometry" />
        </mxCell>
        <mxCell id="xRl2DXlK5777QrmtT1Zl-6" value="开发自测" style="rounded=1;whiteSpace=wrap;html=1;" vertex="1" parent="WIyWlLk6GJQsqaUBKTNV-1">
          <mxGeometry x="210" y="450" width="120" height="40" as="geometry" />
        </mxCell>
        <mxCell id="xRl2DXlK5777QrmtT1Zl-13" style="edgeStyle=orthogonalEdgeStyle;rounded=0;orthogonalLoop=1;jettySize=auto;html=1;exitX=0.5;exitY=1;exitDx=0;exitDy=0;entryX=0.5;entryY=0;entryDx=0;entryDy=0;" edge="1" parent="WIyWlLk6GJQsqaUBKTNV-1" source="xRl2DXlK5777QrmtT1Zl-9" target="xRl2DXlK5777QrmtT1Zl-12">
          <mxGeometry relative="1" as="geometry" />
        </mxCell>
        <mxCell id="xRl2DXlK5777QrmtT1Zl-9" value="提交测试" style="rounded=1;whiteSpace=wrap;html=1;" vertex="1" parent="WIyWlLk6GJQsqaUBKTNV-1">
          <mxGeometry x="210" y="530" width="120" height="40" as="geometry" />
        </mxCell>
        <mxCell id="xRl2DXlK5777QrmtT1Zl-14" style="edgeStyle=orthogonalEdgeStyle;rounded=0;orthogonalLoop=1;jettySize=auto;html=1;exitX=1;exitY=0.5;exitDx=0;exitDy=0;entryX=1;entryY=0.5;entryDx=0;entryDy=0;" edge="1" parent="WIyWlLk6GJQsqaUBKTNV-1" source="xRl2DXlK5777QrmtT1Zl-12" target="xRl2DXlK5777QrmtT1Zl-2">
          <mxGeometry relative="1" as="geometry">
            <Array as="points">
              <mxPoint x="360" y="645" />
              <mxPoint x="360" y="390" />
            </Array>
          </mxGeometry>
        </mxCell>
        <mxCell id="xRl2DXlK5777QrmtT1Zl-17" style="edgeStyle=orthogonalEdgeStyle;rounded=0;orthogonalLoop=1;jettySize=auto;html=1;exitX=0.5;exitY=1;exitDx=0;exitDy=0;entryX=0.5;entryY=0;entryDx=0;entryDy=0;" edge="1" parent="WIyWlLk6GJQsqaUBKTNV-1" source="xRl2DXlK5777QrmtT1Zl-12" target="xRl2DXlK5777QrmtT1Zl-15">
          <mxGeometry relative="1" as="geometry" />
        </mxCell>
        <mxCell id="xRl2DXlK5777QrmtT1Zl-12" value="测试通过？" style="rhombus;whiteSpace=wrap;html=1;" vertex="1" parent="WIyWlLk6GJQsqaUBKTNV-1">
          <mxGeometry x="220" y="600" width="100" height="90" as="geometry" />
        </mxCell>
        <mxCell id="xRl2DXlK5777QrmtT1Zl-15" value="提交上线" style="rounded=1;whiteSpace=wrap;html=1;" vertex="1" parent="WIyWlLk6GJQsqaUBKTNV-1">
          <mxGeometry x="210" y="730" width="120" height="40" as="geometry" />
        </mxCell>
        <mxCell id="xRl2DXlK5777QrmtT1Zl-18" value="Yes" style="text;html=1;strokeColor=none;fillColor=none;align=center;verticalAlign=middle;whiteSpace=wrap;rounded=0;" vertex="1" parent="WIyWlLk6GJQsqaUBKTNV-1">
          <mxGeometry x="270" y="695" width="40" height="20" as="geometry" />
        </mxCell>
        <mxCell id="xRl2DXlK5777QrmtT1Zl-19" value="No" style="text;html=1;strokeColor=none;fillColor=none;align=center;verticalAlign=middle;whiteSpace=wrap;rounded=0;" vertex="1" parent="WIyWlLk6GJQsqaUBKTNV-1">
          <mxGeometry x="320" y="620" width="40" height="20" as="geometry" />
        </mxCell>
        <mxCell id="xRl2DXlK5777QrmtT1Zl-43" style="edgeStyle=orthogonalEdgeStyle;rounded=0;orthogonalLoop=1;jettySize=auto;html=1;exitX=0.5;exitY=1;exitDx=0;exitDy=0;entryX=0.5;entryY=0;entryDx=0;entryDy=0;" edge="1" parent="WIyWlLk6GJQsqaUBKTNV-1" source="xRl2DXlK5777QrmtT1Zl-21" target="xRl2DXlK5777QrmtT1Zl-2">
          <mxGeometry relative="1" as="geometry" />
        </mxCell>
        <mxCell id="xRl2DXlK5777QrmtT1Zl-21" value="仓颉创建埋点" style="rounded=1;whiteSpace=wrap;html=1;" vertex="1" parent="WIyWlLk6GJQsqaUBKTNV-1">
          <mxGeometry x="210" y="290" width="120" height="40" as="geometry" />
        </mxCell>
        <mxCell id="xRl2DXlK5777QrmtT1Zl-36" style="edgeStyle=orthogonalEdgeStyle;rounded=0;orthogonalLoop=1;jettySize=auto;html=1;exitX=0.5;exitY=1;exitDx=0;exitDy=0;entryX=0.5;entryY=0;entryDx=0;entryDy=0;" edge="1" parent="WIyWlLk6GJQsqaUBKTNV-1" source="xRl2DXlK5777QrmtT1Zl-24" target="xRl2DXlK5777QrmtT1Zl-21">
          <mxGeometry relative="1" as="geometry" />
        </mxCell>
        <mxCell id="xRl2DXlK5777QrmtT1Zl-39" style="edgeStyle=orthogonalEdgeStyle;rounded=0;orthogonalLoop=1;jettySize=auto;html=1;exitX=1;exitY=0.5;exitDx=0;exitDy=0;entryX=0;entryY=0.5;entryDx=0;entryDy=0;" edge="1" parent="WIyWlLk6GJQsqaUBKTNV-1" source="xRl2DXlK5777QrmtT1Zl-24" target="xRl2DXlK5777QrmtT1Zl-38">
          <mxGeometry relative="1" as="geometry" />
        </mxCell>
        <mxCell id="xRl2DXlK5777QrmtT1Zl-24" value="需求是否可行？" style="rhombus;whiteSpace=wrap;html=1;" vertex="1" parent="WIyWlLk6GJQsqaUBKTNV-1">
          <mxGeometry x="220" y="170" width="100" height="90" as="geometry" />
        </mxCell>
        <mxCell id="xRl2DXlK5777QrmtT1Zl-28" value="No" style="text;html=1;strokeColor=none;fillColor=none;align=center;verticalAlign=middle;whiteSpace=wrap;rounded=0;" vertex="1" parent="WIyWlLk6GJQsqaUBKTNV-1">
          <mxGeometry x="319" y="195" width="40" height="20" as="geometry" />
        </mxCell>
        <mxCell id="xRl2DXlK5777QrmtT1Zl-29" value="Yes" style="text;html=1;strokeColor=none;fillColor=none;align=center;verticalAlign=middle;whiteSpace=wrap;rounded=0;" vertex="1" parent="WIyWlLk6GJQsqaUBKTNV-1">
          <mxGeometry x="270" y="260" width="40" height="20" as="geometry" />
        </mxCell>
        <mxCell id="xRl2DXlK5777QrmtT1Zl-41" style="edgeStyle=orthogonalEdgeStyle;rounded=0;orthogonalLoop=1;jettySize=auto;html=1;exitX=0.5;exitY=1;exitDx=0;exitDy=0;entryX=0.5;entryY=0;entryDx=0;entryDy=0;" edge="1" parent="WIyWlLk6GJQsqaUBKTNV-1" source="xRl2DXlK5777QrmtT1Zl-31" target="xRl2DXlK5777QrmtT1Zl-24">
          <mxGeometry relative="1" as="geometry" />
        </mxCell>
        <mxCell id="xRl2DXlK5777QrmtT1Zl-31" value="埋点需求评审" style="rounded=1;whiteSpace=wrap;html=1;" vertex="1" parent="WIyWlLk6GJQsqaUBKTNV-1">
          <mxGeometry x="215" y="100" width="110" height="40" as="geometry" />
        </mxCell>
        <mxCell id="xRl2DXlK5777QrmtT1Zl-40" style="edgeStyle=orthogonalEdgeStyle;rounded=0;orthogonalLoop=1;jettySize=auto;html=1;exitX=0.5;exitY=0;exitDx=0;exitDy=0;entryX=1;entryY=0.5;entryDx=0;entryDy=0;" edge="1" parent="WIyWlLk6GJQsqaUBKTNV-1" source="xRl2DXlK5777QrmtT1Zl-38" target="xRl2DXlK5777QrmtT1Zl-31">
          <mxGeometry relative="1" as="geometry" />
        </mxCell>
        <mxCell id="xRl2DXlK5777QrmtT1Zl-38" value="更改埋点需求" style="rounded=1;whiteSpace=wrap;html=1;" vertex="1" parent="WIyWlLk6GJQsqaUBKTNV-1">
          <mxGeometry x="359" y="195" width="110" height="40" as="geometry" />
        </mxCell>
      </root>
    </mxGraphModel>
  </diagram>
</mxfile>
